/* XPM */
static char *_404a403416c4c9ced872521f3488d3c[] = {
/* columns rows colors chars-per-pixel */
"64 64 255 2 ",
"   c #030101",
".  c #0B0000",
"X  c #0C0C0C",
"o  c #130000",
"O  c #1B0000",
"+  c #160C0C",
"@  c #1C0C0C",
"#  c #131313",
"$  c #1C1515",
"%  c #1B1B1B",
"&  c #230000",
"*  c #2A0000",
"=  c #230C0C",
"-  c #2C0C0C",
";  c #340000",
":  c #3C0000",
">  c #340C0C",
",  c #3B0D0D",
"<  c #251414",
"1  c #2A1313",
"2  c #231919",
"3  c #2C1C1C",
"4  c #381717",
"5  c gray14",
"6  c #2C2323",
"7  c #2D2D2D",
"8  c #352424",
"9  c #3B2424",
"0  c #3B2C2C",
"q  c #383737",
"w  c #430000",
"e  c #4B0000",
"r  c #480D0D",
"t  c #540000",
"y  c #5C0000",
"u  c #570909",
"i  c #471919",
"p  c #581616",
"a  c #630000",
"s  c #6B0000",
"d  c #670C0C",
"f  c #740000",
"g  c #7B0000",
"h  c #760B0B",
"j  c #661515",
"k  c #6B1B1B",
"l  c #7B1313",
"z  c #771919",
"x  c #422424",
"c  c #4D2727",
"v  c #432C2C",
"b  c #552C2C",
"n  c #423434",
"m  c #483737",
"M  c #4C3B3B",
"N  c #523535",
"B  c #593333",
"V  c #523B3B",
"C  c #5C3B3B",
"Z  c #6A2626",
"A  c #7A2727",
"S  c #7C2525",
"D  c #633737",
"F  c #793535",
"G  c gray26",
"H  c #4D4343",
"J  c #4A4949",
"K  c #574646",
"L  c #5C4D4D",
"P  c #545151",
"I  c #585858",
"U  c #624444",
"Y  c #624B4B",
"T  c #6A4D4D",
"R  c #7D4444",
"E  c #764848",
"W  c #655353",
"Q  c #6D5454",
"!  c #645A5A",
"~  c #775656",
"^  c #745C5C",
"/  c #606060",
"(  c #6C6363",
")  c #686868",
"_  c #746363",
"`  c #7C6464",
"'  c #756B6B",
"]  c #7A6C6C",
"[  c #707070",
"{  c #7D7272",
"}  c gray47",
"|  c #840000",
" . c #8C0000",
".. c #870B0B",
"X. c #930000",
"o. c #9B0000",
"O. c #9C0E0E",
"+. c #851616",
"@. c #8D1515",
"#. c #971717",
"$. c #A30000",
"%. c #AB0000",
"&. c #A90C0C",
"*. c #B40000",
"=. c #BB0000",
"-. c #B80A0A",
";. c #AC1515",
":. c #A61818",
">. c #B41313",
",. c #BE1515",
"<. c #B31C1C",
"1. c #872626",
"2. c #8B2C2C",
"3. c #942A2A",
"4. c #982828",
"5. c #833333",
"6. c #873838",
"7. c #8C3B3B",
"8. c #9A3434",
"9. c #933C3C",
"0. c #AA2525",
"q. c #B72626",
"w. c #A83838",
"e. c #BC3232",
"r. c #B43838",
"t. c #B53A3A",
"y. c #C40000",
"u. c #CC0000",
"i. c #CA0B0B",
"p. c #D40000",
"a. c #DB0101",
"s. c #D40C0C",
"d. c #C91717",
"f. c #D31313",
"g. c #D91616",
"h. c #D31B1B",
"j. c #E40000",
"k. c #EB0000",
"l. c #E50B0B",
"z. c #EC0D0D",
"x. c #F40101",
"c. c #FB0101",
"v. c #F30A0A",
"b. c #F80909",
"n. c #E81717",
"m. c #F51313",
"M. c #FD1414",
"N. c #F51C1C",
"B. c #FC1D1D",
"V. c #C82828",
"C. c #D42424",
"Z. c #D82626",
"A. c #DB2C2C",
"S. c #C83838",
"D. c #D33232",
"F. c #D73838",
"G. c #E92626",
"H. c #FD2222",
"J. c #F32828",
"K. c #FC2D2D",
"L. c #EC3434",
"P. c #E23939",
"I. c #EC3B3B",
"U. c #F33333",
"Y. c #FB3434",
"T. c #F33A3A",
"R. c #FB3A3A",
"E. c #8B4242",
"W. c #844949",
"Q. c #8B4A4A",
"!. c #984848",
"~. c #8D5353",
"^. c #885A5A",
"/. c #995858",
"(. c #A54A4A",
"). c #B84848",
"_. c #A75555",
"`. c #AB5353",
"'. c #A35C5C",
"]. c #B95757",
"[. c #826767",
"{. c #836D6D",
"}. c #9A6666",
"|. c #857272",
" X c #8B7373",
".X c #827878",
"XX c #8D7B7B",
"oX c #997777",
"OX c #927B7B",
"+X c #A46262",
"@X c #AC6565",
"#X c #A36969",
"$X c #AB6C6C",
"%X c #B86A6A",
"&X c #A87676",
"*X c #B37575",
"=X c #B37B7B",
"-X c #BB7B7B",
";X c #C34242",
":X c #C84646",
">X c #CE4B4B",
",X c #DA4848",
"<X c #C65656",
"1X c #CB5B5B",
"2X c #D55757",
"3X c #DA5C5C",
"4X c #E74646",
"5X c #F24545",
"6X c #FC4343",
"7X c #F44C4C",
"8X c #FC4C4C",
"9X c #E55858",
"0X c #F55454",
"qX c #FC5454",
"wX c #F45C5C",
"eX c #FC5B5B",
"rX c #C86868",
"tX c #D56363",
"yX c #D96464",
"uX c #D46A6A",
"iX c #DA6A6A",
"pX c #C87575",
"aX c #C67B7B",
"sX c #CC7B7B",
"dX c #D97676",
"fX c #D27E7E",
"gX c #E56868",
"hX c #FD6464",
"jX c #F46A6A",
"kX c #FC6C6C",
"lX c #E57373",
"zX c #E77C7C",
"xX c #F57575",
"cX c #FD7474",
"vX c #F57878",
"bX c #FD7C7C",
"nX c #818181",
"mX c gray56",
"MX c #9C8181",
"NX c #979797",
"BX c #9E9292",
"VX c #9F9F9F",
"CX c #AA9191",
"ZX c #B29B9B",
"AX c #A7A7A7",
"SX c #AEAEAE",
"DX c #B9A4A4",
"FX c #BABABA",
"GX c #C8C8C8",
"HX c #D2D2D2",
"JX c gray86",
"KX c #E4E4E4",
"LX c #EEEEEE",
"PX c #F3F3F3",
"IX c gray98",
/* pixels */
"kXhXY.6XK.%.X.k.kXcXqXbXbXbXqXc.*.*.k.Y.K.c.M.6XeXY.8XbXbXbXbXkXcXcXcXbXkXqXqXhXcXeXhXbXhXK.qXcXhXhXkXcXhXH.M.8XhXkXbXcXbXbXcXhX",
"cXcXhXH.g | | H.6X6X6XcXcXcXhXH.a.M.kXbXbXeX6XeXkXkXkXbXbXbXbXbXbXkXeXK.c.x.B.6XqXR.qXcX6XM.8XbXeX8XeXR.c.x.B.6XeXkXbXbXbXbXbXkX",
"6XeX6Xo.| g  .u.$.a.6XcXcXcXbXbXbXbXbXbXbXbXbXbXbXbXcXbXbXbXcXkXkX8Xc.%.u.k.k.p.x.0XcXbX8Xk.c.eXkXeXc.%.*.H.eXeXhXkXbXbXbXbXeXR.",
"j.b.X.g X.K.0XN.p.b.K.kXbXbXcXbXbXbXbXbXbXbXbXbXbXcXbXbXbXxX8XB.K.b.k.H.eXkX0Xx.u.K.hXxXeXu.g g $.p.y.a.Y.hXhXkXhXkXbXbXxXR.j.y.",
"T.u.g g m.0X5X8XeX8Xm.m.0X0X0XbXhX7X5X0XhXcXkXhXK.=.%.N.kXxXxXbXbX5XK.kXwXeXR.8XU.M.N.8X5Xk.| g g g g v.kXxXbXxXkXwXR.m.a.u.x.Y.",
"g g g =.N.v.H.7XjX0Xk.%.u.u.x.N.H.J.T.R.7XeX0X0XU.y.g g g x.vXbXvXhXwXxX5Xk.m.7XhXJ.m.J.N.k.p.y.g g g g =.0XjXkXjXx.$.o.$.u.k.y.",
"f f g j.N.U.wXwXxX0Xk.%.=.u.u.X.o.p.z.k.=.*.*.=.v.U.7XT.a.%.$.m.7XwXwXxXxXjXjX0XU.u.o.f X.X.g f g g f g g g p.v.N.K.7X5XK.v.f f ",
"f g *.k.J.5X5XwXjXU.a.p.*.k.k.=.y.k.N.k.u.o.g X.p.U.5X5X5Xm.=.X.o.N.0XhXxXvXxXwXm.o.f g f g f f f =.m.g f g g =.p.L.5XU.4Xz.g f ",
"%.j.k.p.k.J.L.L.L.5X4XjXj.z.k.l.G.7XwXxXxX9X7X4XG.k.%.X.%.X.g f o.u.z.z.4XjX0X4XwX0XL.u. .h o.z.7X7X4X4Xa.*.u.G.L.z.*.$.o.| X.%.",
"j.l.l.G.4X4Xz.*.=.I.                                                                                              y f f f f o.n.",
"l.a.l.L.wXZ.%.$.=.p.                                                                                              u f f f o.j.L.",
"*.*.=.a.n.a.l.n.a.j.X   X     X X   X   X   X     X   X   X   X X     X   X   X X     X     X X   X X     X X     g o.$.p.g.n.y.",
"$.%.$.$.y.P.9XZ.y.s.X X X X X X X X X X X X X X # # X X X X X X X X X X X X X X X X X X X X X X X X X X X X X X X %.L.F.Z.j.=.o.",
"u.u.u.$.%.f.Z.G.4XF.# # # # X # # # # X # r t y e a ;. . .$.).r.).w.X.t y u s y u u a f X.%.X.s u t t t a &.&.X. .*.C.4XP.s.*.$.",
"Z.C.A.p.%.%.=.F.A.C.% # # # # # $ $ # # # s g s s s s s s X.C.,XlXlXg.a s s s s a X.g.lXzX9X=.g s s | y.,X9XgXlXlX9X9XgX,XZ.g.A.",
"s.h.F.C.*.| $.u.y.y.% % % % % % % % % % % >.f.D.h.$.s a s g %.f.Z.,Xu.y.X.s a  .s.y.C.lXlX,Xh.f.f.C.D.,X,X9XlXzXzXlX,Xf.u.u.C.,X",
" . .*.u.=.X.$.*.h.3X5 5 5 5 5 5 5 % 5 5 5 h | *.F.d.$.| u.,XF.i.$.o.o.*.y.X.$.D.h.y.=.| X.o.$.%.| f  .y.C.C.C.h.C.h.*.g s X.*.%.",
"f f | $.%.=.=.X. .o.5 5 5 5 5 5 5 5 5 5 5 ;.D.,XyXd.| a X.y.i.i.o.s s | %.=.F.,XD.h.a a a s | $.| X.*.C.D.i.o.g X.=.=.%.X. .f g ",
"a a a X.i.V.d.f a a 7 7 7 5 7 7 7 7 7 5 7 ].iXiXF.s a a a a a a a a f i.yXdXtX3XiX3Xf a a s $.V.2XiXyX,XV.*.a a a f %.*.*. .a a ",
"y a a | V.2XD.$.y y q q q q q q q q q q q ].,X| a y a | %.f y a a y =.yXiXiXiXiXyXS.d.V.*.%.V.3XdXyX>XS.=.a y y y y a | =.$.X.f ",
"tX,X%.$.S.S.=.*.d.,.q q q G q q G q q q q l y y y y y f f | =.;X<X2X:X>XtXtXyX>X,.S.>XiX1X>X>XuXyXS.,.$.a y a s y y y y y g $.,.",
"dXfX<X%.$.y y y | -.G G G G G G G G G G G p y t y f g s y f $.V.:X2XV.;X1XS.*.,.>X1XuXdXdXtXq.V.<.*.f y y y %.q.o.y y y y y $.-.",
"1XdXuXe. .t t y t y J J J J J J J J J J J p t g %.S.;X>X1X;X%.g | >.q.>X>X| | o.<.-.>.>.S.;X,.| f y y y y f s y t a | t t a o.| ",
"s q.1X1X$.g | | s e P P P P P P P P P P P k f | $.r.1XrXuXrXe.e.>Xq.;.S.%.o.X.X.| | a a o.e.;X$.t t t t s t t t y $.e.>.y y t s ",
"X.$.q. .a s o.;.0.&.I I I I I I I I I I I z | | o.;.<X1XfXfXfXfXrX<.X.a f X.&.;.<.e.e.q.%.o.a t t t t t t t y q.1XrX<X&.s t t t ",
":.$. .t t a &.q.0.;./ / / / / / / / / / / %XpXrX1X].fXsXfXfXfXfXrX$.y e t | :.q.0.r.).).;.e e t t t t e t a ).pXsXsX1Xr.t.X.t t ",
"].r.&.s s a s s g g ) ) ) ) ) ) ) ) ) ) ) ) ) ) ) ) ) ) ) ) ) ) ) ) ) ) ) ) ) ) ) ) ) ) ) ) ) ) ) ) ) ) ) ) ) !.).).0.r.<X].).e.",
"X.w.).).rXsXrXpXsXrX[ [ [ [ [ [ [ [ [ [ [ [ [ [ [ [ [ [ [ [ [ [ [ [ [ [ [ [ [ [ [ [ [ [ [ [ [ [ [ [ [ [ [ [ [ F g s f  .:.O.r.`.",
"e e a %XsXsXaXaXaXaX} } } } } } } } } } } } } } } } } } } } } } } } } } } } } } } } } } } } } } } } } } } } } F #.O.#.0.4.O.#.| ",
"e w e s w.%XaXaX].`.nXnXnXnXnX} nXnXnXnXnXnXnXnXnX} nXnX.XnXnXnXnX.XnXnX} nXnXnXnX} nXnXnXnX.XnX} nXnXnXnX.XnXU t g 4.w.w.w.| w ",
"w w w g |  .@.f | X.mXnXnXmXnXmXnXnXmXnXnXoXMX=X$X7.B B B B B B B 6.'.$X@X'.'.7.5.F D D D 5.7.'.*X*X$X$X=X&X_.p w w e a y t e w ",
"f a a g a a a s 8.4.mXmXmXmXmXmXmXmXmXmXmXE.#.| f y w w w w : a ..4.8.`.@.s a f 4.s y a ......8._.`.@.@.w.8.@.g t w w e w w e t ",
"1.f f a w : : y s s NXNXNXNXNXNXNXNXNXNXNXD e e a s s | 8.(.(.8...s e w w w w e w : w a `.(.s w w w s @...y e e y s f @.3.3.g s ",
"%X(.1.f e w : w : : VXVXVXVXVXAXVXVXVXVXVXC : w a +.(.%X-X-X-X-X@X3.t : : : w : : : : _.`.!.s : : : : a a w : e y f 4.`.'.(.+...",
"@X@X2.a a a w : : : AXAXAXAXAXAXAXAXAXAXAXU : : e l @X*X*X%X@X'._.h w : : : : : : : 4.@X'.2.h a e : : : : : e +.9.1.(.9.h a y s ",
"a s a a l !.6.h s f SXSXSXAXSXSXSXSXSXSXSXR t : t s 9.6.2.s e : ; : : : ; : : e a s s z 8.2.'.$X$X7.e : : t 2.'.@X!.!.h s s 2.9.",
"+.6.6.1.1.A s s e ; FXFXFXFXFXFXFXFXFXFXFX&X$X/.z y w e e ; ; : : ; : w h l s A l a a h z '.-XMX=X$X'.'./.'.+X/.!.a e w a +X=X*X",
"A Q.E.z s e : ; ; ; FXFXFXFXFXFXFXFXFXFXFX#X#X$X/.t ; ; ; ; ; ; : a 5./.d y a 5.7.a y e y 2.!.$X#X/.Q.+XE.7.5.7.z w ; ; a 6.$X+X",
"; ; e y d e : ; t a GXGXGXGXGXGXGXGXGXGXGXT a d d A Q.t ; * * ; : a 5.~.A z E.6.A w ; ; : e t ; ; y a d y w w e a A E.~.!.F A : ",
"* ; w y y w w y k d GXGXGXGXGXGXGXGXGXGXGXW : e y 5.t * ; w A y : t E.}.&X}.Q.d t : * * : t y w e y a e t : ; ; t F 7.Q.k 6.j : ",
"; e y k t w : e w k HXHXHXHXHXHXHXHXHXHXHXW ; u t * * * * w t t Z F F ~.}.Q.k t y F ~.~.k ~.^.^.W.E.u e u j e e t y w : ; ; ; * ",
"w j Z ~.e ; * * * * JXHXJXJXHXJXHXJXJXJXJXW * * * * * * * * * : t k Z u t w ; : w F oX~.W.&X&X&X&X}.e : t F t : * * * ; * * * * ",
"u e t Z ; & * & & * KXJXJXJXJXKXJXJXKXJXJXQ * * * * * * * & * * ; ; e e ; * & ; w F F W.^.}.R W.}.Z : * : : ; * & & * * & * ; e ",
": ; ; * & * w p u : KXKXKXKXKXKXKXKXKXKXKX^ : ; * & & ; w e e : & & * e F F ^.&XoX^.R R ~.w w : : & * & : ; : : w : * & & & : w ",
"* * & & & ; p p ; * KXLXLXLXKXLXLXLXKXLXLXBX] [ ] ] {.OXOX X|.|.] ] {.CXDXZXDXDXDXOX{.{.{. XMX{.{ { ' ] {.{. X|.{.{.OXE w ; * ; ",
"r * & & & & : : ; ; LXLXLXLXLXLXLXLXLXLXLXLXLXLXLXLXLXLXPXLXLXLXLXLXLXLXLXLXLXLXLXLXLXLXLXLXLXLXLXLXLXLXLXLXLXLXLXLXLXZXoXZ : : ",
"E D & & O & * ; D D PXLXLXPXLXPXLXPXPXPXPXPXPXPXLXPXPXLXPXPXPXPXPXPXPXLXPXPXPXLXPXPXPXLXPXLXPXLXPXLXPXPXLXPXPXLXPXPXPXOXr & O : ",
"i E * & * * * b ~ ^.IXIXIXIXIXIXIXIXPXIXIXIXIXIXIXIXIXIXIXIXIXIXIXIXIXIXIXIXIXIXIXIXIXIXIXIXIXIXIXIXIXIXIXIXIXIXIXIXIX_ O O O O ",
"& O O O * * i E ^ ~ IXIXIXIXIXIXIXIXIXIXIXIXIXIXIXIXIXIXIXIXIXIXIXIXIXIXIXIXIXIXIXIXIXIXIXIXIXIXIXIXIXIXIXIXIXIXIXIXIX] i c * O ",
"O o o O ; B T U B & o O O & > B c r * & O * * i c , > i {.OX X^.* & & * D [. X XOXU & O O O O & & O & & ; B b * * ; , * & * * O ",
"O o & Q ` ` U > O o O O & * C [. X X{.Q T ` {. XOXOXOX X X[.T * > i U [. X X] ^ B > & O o O O & > b C U T D 4 * * > & O o O O o ",
"o o b ` ^ ` B O O O O 4 > * > x C Y ^ {.XX X{. XOXOXOX XQ * & & c Y ] [.[.` b & & O o o o o & 4 Q [.|.` Q Y c > * & O & & O o o ",
"& O & b V T ] MX{.9 4 x - & & N U 4 - V ^ ` |.XXXXY O O o o & Y ^ W ` T Y b 9 > O o o o O > U |.XX|.Y U W ^ |.XXXX> o o o O & & ",
"4 & O O O x _ MX|.Y ^ XX_ Y O & & O & - V v ^ ] & o o . o o O 9 9 4 N 9 O O . o . o . V ] ] W Q W - & - x Y ] OX.XN O O o o O - ",
". o o O - O O o o V K ] |.] 1 o o . O O O o & o o O O 9 v M = o . o O = O . o . o . O Y ] ] m o o O O O O O o o o 9 x n m v O o ",
"o o o < @ o o . o O o o 9 V 3 o . . o o o o . . . O V ' _ Q 9 o o o O 3 O . . . . O o o & m M O o = = O O o . . . 9 v O n M O o ",
"o . o . . o = = 8 3 o o o o o 1 ] M M o . . . . . 0 ' .X{ ! 8 @ @ o o . . . . o 0 M 3 3 O o o o < M 8 = < M ' L L W _ @ 2 0 o o ",
"n o o o . . @ @ @ . . . o . o H { ( K . .   . o < @ 8 8 n L W ( ! < @ . . . . + 1 0 n W o . . . . o < P < W .X.X{ ' ' 0 2 V 8 8 ",
"M @ @ < . . . . . . . . . . . 3 0 + .   . . . . . . . . . . 0 ' _ 2 .   . .   < H q 2 o . . .     . o M 3 3 . M L n . @ 2 6 m H ",
"! I { / @ . . .             . . .   . .               . .   . . .     .     $ K ! + .         .     . 6 H     .     . . o @ H J ",
") [ ] J 2 .                   .                 . .   .       .           J M .                 . + 2 6     .           . $ P ) ",
"      .                                                                 +   .               . + q < $                           ",
"                                                                                              J 5                               ",
"                                                                                              $                                 "
};
