/* XPM */
static char *_abfc7f5ff5e49dc9ca453d5861ceea6[] = {
/* columns rows colors chars-per-pixel */
"64 64 254 2 ",
"   c #010101",
".  c #0D0D0D",
"X  c #17110F",
"o  c #141414",
"O  c #1E1715",
"+  c #1C1C1C",
"@  c #39190D",
"#  c #261B16",
"$  c #2F221E",
"%  c #232323",
"&  c #2B2523",
"*  c #2B2B2B",
"=  c #342B28",
"-  c #39322E",
";  c #333333",
":  c #3C3634",
">  c #3B3B3B",
",  c #421C0F",
"<  c #4A2415",
"1  c #4F2913",
"2  c #542512",
"3  c #5A2612",
"4  c #542A15",
"5  c #5C2A15",
"6  c #532C19",
"7  c #5D2D1A",
"8  c #5F3117",
"9  c #55301C",
"0  c #5B321D",
"q  c #632B15",
"w  c #6A2D16",
"e  c #642E19",
"r  c #6A2F19",
"t  c #65321C",
"y  c #6D321C",
"u  c #6A391E",
"i  c #71351D",
"p  c #5A3422",
"a  c #583526",
"s  c #52352A",
"d  c #5D3A2B",
"f  c #463B35",
"g  c #633523",
"h  c #673824",
"j  c #6C3A24",
"k  c #633B2A",
"l  c #6C3D2A",
"z  c #743922",
"x  c #743B24",
"c  c #753E29",
"v  c #793F28",
"b  c #4C413C",
"n  c #59433A",
"m  c #66412D",
"M  c #6C422E",
"N  c #76442C",
"B  c #78452A",
"V  c #7B432C",
"C  c #6C4434",
"Z  c #694739",
"A  c #724432",
"S  c #7D4731",
"D  c #7E4A34",
"F  c #784C37",
"G  c #744C3B",
"H  c #7C523C",
"J  c #484848",
"K  c #544843",
"L  c #555555",
"P  c #6A4E42",
"I  c #714F41",
"U  c #675147",
"Y  c #755244",
"T  c #7C5443",
"R  c #76574A",
"E  c #7D5A4B",
"W  c #765D52",
"Q  c #6D625D",
"!  c #79655B",
"~  c #656565",
"^  c #6B6B6B",
"/  c #7D6B62",
"(  c #747474",
")  c #7C7C7C",
"_  c #84492A",
"`  c #8E512F",
"'  c #804732",
"]  c #814B35",
"[  c #834D39",
"{  c #84523C",
"}  c #89533A",
"|  c #965A39",
" . c #A45D36",
".. c #A3613E",
"X. c #845542",
"o. c #895642",
"O. c #865943",
"+. c #8B5A45",
"@. c #835D4C",
"#. c #8D5D4A",
"$. c #915C46",
"%. c #925E49",
"&. c #8C624C",
"*. c #93634D",
"=. c #9A6548",
"-. c #8C6453",
";. c #836759",
":. c #8B6B5D",
">. c #946552",
",. c #9A6652",
"<. c #956955",
"1. c #9B6A54",
"2. c #956B59",
"3. c #9B6D5B",
"4. c #98705A",
"5. c #9D725D",
"6. c #A96946",
"7. c #B16E4A",
"8. c #B6724E",
"9. c #A16E58",
"0. c #A3725D",
"q. c #AB7558",
"w. c #B77856",
"e. c #836E63",
"r. c #8A6E62",
"t. c #8A7469",
"y. c #947363",
"u. c #9C7463",
"i. c #997866",
"p. c #947A6C",
"a. c #9C7C6B",
"s. c #8D7A70",
"d. c #947D72",
"f. c #9C7F72",
"g. c #A37663",
"h. c #A37965",
"j. c #AC7B62",
"k. c #A57C6B",
"l. c #AA7E6B",
"z. c #BE815E",
"x. c #9F806E",
"c. c #9C8275",
"v. c #9A8479",
"b. c #AD8067",
"n. c #A7826E",
"m. c #AB826D",
"M. c #B88367",
"N. c #A48474",
"B. c #A78777",
"V. c #AC8473",
"C. c #A48B7E",
"Z. c #AC8A7A",
"A. c #B28573",
"S. c #BB8C73",
"D. c #B28C7B",
"F. c #B78C78",
"G. c #B8917C",
"H. c #BB917D",
"J. c #C0815E",
"K. c #C48867",
"L. c #C58C6C",
"P. c #C78F70",
"I. c #CA9374",
"U. c #C99679",
"Y. c #CD997C",
"T. c #D19C7E",
"R. c #A68E81",
"E. c #B28F80",
"W. c #AC9284",
"Q. c #AE9588",
"!. c #B59283",
"~. c #BC9583",
"^. c #B59788",
"/. c #B49A8C",
"(. c #BB9B8C",
"). c #B79E91",
"_. c #BC9E91",
"`. c #BEA293",
"'. c #B5A39B",
"]. c #C39885",
"[. c #C49A85",
"{. c #CE9D81",
"}. c #C39C8B",
"|. c #D19E82",
" X c #C3A08D",
".X c #CCA28C",
"XX c #D4A286",
"oX c #D4A48B",
"OX c #D8A78B",
"+X c #DBA98C",
"@X c #C2A495",
"#X c #C7A797",
"$X c #CCA593",
"%X c #C6A99B",
"&X c #CBAC9C",
"*X c #D0A794",
"=X c #D4A994",
"-X c #DBAD93",
";X c #D2AD9B",
":X c #DEB096",
">X c #D4B09E",
",X c #DCB29B",
"<X c #E3B49A",
"1X c #E2B59B",
"2X c #C9AEA1",
"3X c #D0AEA0",
"4X c #CDB2A4",
"5X c #CDB5AA",
"6X c #D4B4A4",
"7X c #D9B7A6",
"8X c #D4BAAD",
"9X c #DBBBAB",
"0X c #D5BEB2",
"qX c #DCBFB2",
"wX c #E4BBA4",
"eX c #EABDA4",
"rX c #E2BEAC",
"tX c #DAC1B4",
"yX c #DAC6BB",
"uX c #DEC9BE",
"iX c #E4C1AE",
"pX c #EBC3AC",
"aX c #F0C5AE",
"sX c #E4C3B3",
"dX c #EAC6B3",
"fX c #EDC9B5",
"gX c #E3C7B9",
"hX c #E6C9BB",
"jX c #ECCBBB",
"kX c #F0C6B0",
"lX c #F2CBB5",
"zX c #F2CEBB",
"xX c #F3D1BE",
"cX c #F9D4BF",
"vX c #E1CDC2",
"bX c #EACFC1",
"nX c #E3D1C6",
"mX c #EED1C3",
"MX c #E5D5CB",
"NX c #F4D4C3",
"BX c #F5D7C7",
"VX c #F8D6C2",
"CX c #FAD9C6",
"ZX c #F6DACB",
"AX c #FADCCC",
"SX c #EDDDD4",
"DX c #F7DED1",
"FX c #FADFD1",
"GX c #EEE0D7",
"HX c #EFE1D9",
"JX c #F7E1D5",
"KX c #FAE2D4",
"LX c #F0E4DC",
"PX c #FCE5D9",
/* pixels */
"L ~ ( ( ) ) ) ) ) ) ) ) ) ) ( ( ( ^ ~ ~ ~ ( ) ) ) ) ) ) ( ( ) ) ) ) ) ) ) ) ) ) ) ) ( ( ^ ^ ^ ^ ^ ( ( ) ) ( ( ( ^ ~ L L L L J J ",
"J SXHXHXLXLXLXLXLXLXLXLXLXHXGXGXSXSXSXHXLXLXLXLXLXLXLXLXHXHXHXLXLXLXLXLXLXLXHXLXHXHXHXHXHXHXLXLXLXLXLXLXHXSXSXSXSXSXSXHXLXHXHXL ",
"& yXuXvXnXnXMXMXMXMXnXvXvXvXuXvXvXnXMXMXMXSXMXMXMXnXvXnXMXMXMXMXMXMXnXvXvXvXvXgXvXvXnXMXnXMXMXMXMXMXMXnXvXvXyXyXvXMXMXMXMXMXnXJ ",
"  @X&X4X8X0X8X8X8X4X2X2X2X4X6X8XyXyXuXuXuXyX0X5X2X2X5X5X0X0XqX8X5X5X3X5X5X5X8X0X0XyXyXuXyXyXyX0X0X8X4X2X%X2X3X8X0XqXyXqXqX5X2X. ",
". D.(.}.(.(.!.Z.A.A.D.!.(.@X2X4X5X5X2X2X@XE.V.l.D.(.%X%X%X@X_.(.(._.(._.@X%X2X5X5X5X5X5X5X5X2X@X_.!.E.E.!._.%X2X%X#X@X(.!.V.u.  ",
"  5.3.<.-.&.&.>.3.k.V.E.(.(._._.(.!.l.u.2.>.u.A.(._._.(.E.Z.l.k.k.l.A.E.!.(.(._.(.E.E.l.l.f.l.l.g.g.l.E.(._._.!.V.k.3.-.@.R I   ",
"  Z Z Z G H O.>.u.k.N.D.Z.N.k.3.#.[ G G X.>.N.E.E.Z.g.,.o.o.#.#.>.3.u.k.l.k.k.3.#.X.G G G G T o.>.u.l.l.E.l.k.u.>.+.{ G Z G T   ",
"  k l A D +.<.u.g.u.3.>.o.D A k d k A [ #.u.g.u.o.' C k A G [ [ +.#.>.2.2.#.D l k k k k k k k S [ >.2.2.%.o.[ [ [ [ [ [ [ X.o.. ",
"  l v ' X.#.o.[ V c h g 6 9 6 p g v [ >.2.>.[ c g g g j z ' ' o.#.#.#.[ c g 7 a g l c V ' ' ' S v c v c c j l c V ] o.+.#.o.]   ",
"  y y y r 7 6 + % % % % + + + + $ #.>.#.' y 7 3 3 y i z c ' X.o.X.' y e 3 7 7 y V [ o.#.%.+.X.[ v % * ; ; ; * % + D { [ D c i   ",
"  < , @ @ @ , ; ; * % % % + o o . $ c r 7 2 2 3 r c z i c [ [ V r 3 2 2 3 r ' o.#.o.X.' V z r r e * * % % % + o o [ D v y q 5   ",
"  2 2 3 r c D * % % + + o o . . . o # 2 2 3 r c c r r c [ ' r 3 3 2 q y [ +.o.X.' z r r q q q q 5 + + + + o o o o c y w q 3 5   ",
"  r [ >.u.g.g.+ + + . . . . o o + + % $ r v [ c r r z ' c r 3 3 q r [ o.#.[ v w q 3 3 3 3 3 q r z o + % + % % % + w w q q q 3   ",
". V ] [ [ ' S o . . . o o + + + % * ; * * G v r r z ' ' e 3 3 r ' o.X.V r 3 2 2 2 2 3 3 q q 3 3 w % % * % * * ; ; q q 5 q 3 q   ",
"  r r r e q q . . o + + + & * * ; * % % + O 3 e z [ ' r 3 q c [ o.' r 7 2 2 < 2 2 3 7 3 q r i y 7 * ; * ; * * % & q 5 q 5 5 5   ",
"  7 7 7 e e r + + + % % * ; n * % % + + o . X g [ ' r 7 r V o.[ i 7 2 3 7 r i v ' ' ' V c y r e e % % + + o + o o < < < 5 e r   ",
"  4 e t t i z % % % * ; ; * U Y + + o . . o + % A i 7 y ' o.[ y 7 7 y c o.%.,.3.3.3.3.2.>.#.' c z o o o . . . . . , 4 i c V V   ",
"  t t z c z g % ; ; ; * % + Z S < . X o + + % * ; s h ' o.[ j e y ' %.2.3.>.>.#.#.#.#.>.>.u.g.g.g.. o o + + + + + <.g.g.2.+.V   ",
"  x c v c g < ; * % % + + + < p < # + + % * : ; % % k #.[ c j v #.3.,.#.[ c l h i h c c ' o.%.3.h.+ % % % % % + o Z.k.3.+.v z   ",
"  V V N p 9 h % % + + + o o # < s l = & > : % + + + o k ' c o.,.>.#.' l g 7 7 p 7 p 7 p g j v ' +.* & % + + o . . 3.>.} v h g   ",
"  S l p p [ k.+ + + o . . . # S 3.k.k.K * + + o o . o . k #.,.+.' l g g l c A ' ' S c k g a a k A % + o o . . o O } D l k p a   ",
"  k g A ,.g.g.o o . . . X O b E.l.k.>.D % + . o o o + + + k [ A k l C [ %.3.g.g.k.k.g.>.$.X.l a a o . . . + + + % A k a a k A   ",
"  C { ,.3.0.,.X . . . o + + K g.3.o.A k s O o + + % % * * * f l G o.,.k.l.l.l.l.l.l.l.A.l.l.g.%.A . o + % * * ; * s d l [ %.1.% ",
"  %.,.3.0.,.o.. . . + + % % n X.C k d C %.2.& % * ; * * * * % n 0.V.A.l.g.3.%.%.%.#.,.3.l.l.D.E.V.+ % % * ; * % % H %.g.V.A.k.  ",
"  ,.0.0.9.o.d o o + + % * > : s s C #.l.D.A.2.> ; * % % % + + O U A.g.,.o.T Z Z Z Z G X.o.,.g.l.E.* ; > > * * * * D.(.~.l.l.,.  ",
"  0.0.,.T d Z + + + % * > ; % @.0.D.~.!.D.g.>.Y & + + o o o o . X - X.I I G X.X.@.X.Y G Z Y o.3.g.; ; * % * * * * (.~.l.l.,.>.  ",
"  3.>.P n I g.+ % % ; > * + + @X%X@X~.l.3.#.T T Y # o o o . o o X + = @.>.0.l.l.l.l.g.9.#.T P Y #.* % + + + + % % l.j.2.#.@.T   ",
"  &.G n P -.>.* * ; * % + + O @X~.l.g.>.R Y @.3.l.k.% o o o o + + % & b D.(.}.}.}.}.}.].E.l.2.T P + + o o + + + + -.@.R R R R   ",
"  P Z R y.l.F.* * * % % % + + l.3.@.Y P @.g.D.}.@X}.k.& + % + % * * ; ; K ~.~.H.E.~.].$X@X#X}.~.k.o o o o + + + + E -.y.g.g.g.  ",
"  ;.D. X&X6X8X& % % % + + + + P n P :.l.].#X#X$X}.F.u.;.- % % * ; * % % + f -.u.u.u.k.l.].}.$X&X&XO + + % % % + + F.].].].!.H.  ",
"  }.3X6X7X6X3X+ + + o o o + + U y.].3X3X3X3X}.~.k.r.:.g.l.K * & + + + + o o + U E W @.:.u.l.~..X&X* * * % % % % + 3X;X$X].H.A.  ",
"o *X*X*X$X[.~.o o . o o + + % &X8XqX6X3X$X].l.y.2.y.D.}.3X#XK + + + o o o O o & y.p.:.W W ;.y.l.~.% % + % % + + + $X[.D.l.N.k.  ",
"  .X.X~.D.N.k.. o o + + % % * tX9X&X*X~.N.r.r.i.G..X>X6X>X;X[.: o o o o o + + % : ).*X}.V.r.W W ;.- % % % % % % % k.a.a.Z.!.~.  ",
"  }.Z.N.p.y.! + + % % % * * * 7X;X~.x.r.r.p.G.;X6X9X7X7X=X~.x.r.= o + + % % * ; * : %XtX9X7X*XZ.r.: + + % + % + % N.~.*X;X=X[.  ",
"  N.f.a.r.r.B.* ; ; ; * % + + }.p.;.! a.(.,X9XiXtX9X>X XC.x.p.B.(.W % % * ; * % % + = `.sXgXuXsX9XU + % % % % % % 9X9X9X7X.X!.  ",
"  p.d.N. XtXhX> : * % + + + o r.e.C.>XrXgXgXhXiX9X*XC.x.x.v. X7XqXsXt.* % % + o o . . f 6XrXsXgXvXQ % % % % % * * hXqX,X(.!.^.  ",
"  E.;XsXhXbXhX% % + o o o + + c.7XhXbXbXhXhXiX>X(.B.x.v.).wXdXhXhXgXqXe.+ o o . . . o + b @X7XrXiXs.* ; ; * % % % ;X(.D.!. X;X  ",
"  sXjXbXdX9Xv.+ o + + + + % * hXmXmXjXjXiX4X(.C.x.c.^.rXfXbXbXhXdXrX3X(.U . . . o o % % * f c.W.(.t.% + + + + + + R.^.&XrXiXiX  ",
"o jXjXrX@Xc.`.+ + + + % % % + BXNXjXfX3X/.C.c.c.Q.9XjXmXmXjXfXfX3X}.W.s.! > + + % % % % % % f ! Q K X o o o . . . rXjXjXbXjXiX  ",
"  6X#X^.C.&XmX% % % * % % + + mXfX2X(.C.c.c.W.rXxXBXZXmXmXzX9X#X^.d.! ! ! Q.v.% % % % % + o o d.rXW.. . . . . . . ZXZXNXjXrX&X  ",
"  ).^.^.7XZXZX% * % + + + + o dX_.C.s.f.).fXmXDXZXZXNXxXsX&X).v.! ! e.8XZXJXJX'.% + + + + + + o '.5Xo . . . . o o mXzX6X).Q.Q.  ",
"  _.@XiXZXZXZX+ o o o o + + + /.R.Q.9XBXAXJXDXAXZXBXxX8X`.R./ ! s.qXDXJXPXDXDXZX'.+ + % + % + + ; 5X. . . o + + % @XQ.R.Q.#X4X  ",
"  2XjXAXZXZXmX. . . . . o + + %XjXAXDXKXDXAXAXNXNX9X%XW.t.! t.iXDXPXJXKXAXZXZXCXCX).+ % o o o o . * o + + % % * * ).2XdXVXCXCXo ",
"  VXAXCXCXzX@X. o o o o + + * ZXDXKXKXAXKXZXCXrX&X^.v.e.v.8XPXLXPXKXDXDXAXCXVXgX9X5Xf.o o o o o + + % % * * * % % BXAXFXAXAXAX  ",
". AXCXcXsX`.`.+ + % % % % % % KXKXKXAXVXxX9X2X).v.t.v.7XFXPXPXKXDXDXAXCXjXqX4X%X`.).Q./ o + + % % % * * % % % o o KXKXKXCXgX2X  ",
"  hXsX9X%X@XNX% * * * * * & % AXCXVXsX4X%X).C.d.C.wXAXPXPXPXFXKXAXCXhX7X&X_.C.e./ / / / / ; % * * * % + + o o o . AXzX6X).Q.R.  ",
"  &X&X@X&XVXKX% % + % + + % & jX9X&X#X/.C.v.Q.qXAXKXPXKXFXAXAXCXdX6X@XW.t.e./ e.e.R.@X2X7X2X: % + + + + + + + + % `.Q.W.W.^.).  ",
"  #X#X9XVXAXAX+ o + o + + + + `./.C.v.W.&XNXAXAXKXKXAXAXAXcXpX4X@XR.e./ / t.qXAXPXPXPXPXPXAXqX: * * * * ; ; ; ; : (.%X7XsXfXlX  ",
"  >XlXNXcXVXcX. o o o + + % * v.W.#XfXcXAXKXKXAXNXCXcXcXpX&X XN.! / ! /.cXKXPXPXKXKXKXKXKXKXKXtXJ J J J > > ; * * zXcXcXBXcXcX. ",
"  lXzXlXlXlXlXdX,X/.c.x.x.C.#XpXzXcXBXBXNXcXcXcXxXlX,X#X/.N./ ! t.6XcXKXGXKXZXCXVXBXVXNXZXNXcXcXCXCXNXNXNXcXNXNXNXcXBXNXcXzXxX  ",
"  ,X,X,XwXwX.XN.r.t.B.$XpXfXNXNXBXxXzXzXxXlXfXpX;X`.^.x.e.! B.pXcXZXZXZXcXzXzXlXfXfXaXaXpXaXfXlXlXzXxXzXxXxXxXxXxXxXlXpXwX=X~.  ",
"  H. X.XH.B.x.V..XeXkXzXNXxXzXfXlXfXpXpXeX-X XG.H.x.4.i.~.pXxXBXBXxXlXfXfXpXwX,X.X[.~.~.G.G.~.[..X=X:XwXeXeXpXpXeX1X=XG.x.r.e.  ",
"  .X[.U.[.=X:XpXpXbXfXfXpXiXeXwX1X:XOX[.G.A.n.x.i.x..XeXfXbXlXdXiXpXwX1X-X{.G.B.n.a.i.n.G.G.U.[..XoX-X:X:X+XXX].G.m.x.i.i.n.G.  ",
"  XX+X+X<XwXpXpXwX1X1X-X+XXXU.S.S.m.n.n.h.h.x.S.+X1XiXdXpXwXwX<X:X+X{.S.b.h.4.r.i.S.XX+X+X:X,X1X1X1X:X+XXXS.A.b.x.x.b.S.{.+X-X. ",
"  T.OXOXOXOXXX|.Y.S.M.b.h.5.5.5.4.5.4.b.M.U.OX:XwXwX7X,X,X-XXXU.S.b.i.4.:.4.b.T.OX-X1X,X,X,X:X-XXXT.L.b.b.5.5.5.b.P.XX+X-X-XOX. ",
"  M.M.b.b.j.q.9.&.E E &.&.&.4.h.M.M.P.Y.XX=X-X:X-XOXXXXXI.K.b.4.&.&.4.q.L.|.-X,X,X,X-XOXXX{.I.L.b.4.<.<.&.4.b.P.T.XX=XOXXXT.P.  ",
"  @.O.O.=.1.9.q.z.z.z.K.L.P.P.U.T.XXXXXXXXoXXXXXT.P.z.b.1.=.*.&.4.z.L.{.OX-XoXoX{.{.I.L.z.q.1.=.&.&.*.1.z.P.T.|.XXXXY.I.K.z.=.  ",
"  m H =.z.J.L.P.U.{.{.U.{.{.{.Y.U.U.U.U.P.L.z.q.=.| O.H H O.=.8.z.P.{.U.U.I.L.K.z.6.=.O.O.H H H } *.8.z.L.I.I.P.P.z.q.=.O.H H   ",
"  $.6.z.z.M.L.z.z.z.z.z.z.z.z.z.8.w.7.6.| H F M m m M F } =.8.z.K.z.z.z.7.=.O.H F M M M M m m H ..7.z.w.w.8.7.=.} F M m d m m   ",
"  8.6...| ` D B B B m B B B B _ D B m p p a 0 p 0 m B `  .6.7.....| B B m 0 9 9 p p a p p B ` | ......| | ] M p p p 9 a m B }   ",
"  ` B 0 9 9 9 9 9 9 9 0 8 0 9 9 9 9 9 9 9 9 9 0 u B ` ` ` _ B u p 9 9 9 9 9 9 9 9 9 9 u B B ` _ B B B u 9 9 9 9 9 9 9 j _  . .  ",
"  0 1 9 6 6 6 6 6 8 0 9 1 9 1 9 6 9 6 6 6 6 8 u u B u u 0 9 9 6 6 6 6 9 1 1 1 9 6 9 8 u u u g u 8 9 9 9 6 6 9 6 6 8 x _ _ B _   ",
"  1 1 1 1 1 1 9 1 1 6 1 1 6 1 1 1 1 1 1 1 6 8 9 9 6 1 1 1 1 1 6 1 1 6 1 1 9 1 1 1 6 6 1 1 1 1 1 1 1 1 1 1 1 1 1 8 8 8 8 8 5 5   ",
"                                                                              .                                                 "
};
