/* XPM */
static char *_58f2defc7ed432c89f93f7c1dd34bb7[] = {
/* columns rows colors chars-per-pixel */
"64 64 255 2 ",
"   c #010101",
".  c #0B0807",
"X  c #160C0C",
"o  c #10100B",
"O  c #191614",
"+  c #271717",
"@  c #122C0F",
"#  c #1C2B12",
"$  c #0E3812",
"%  c #193913",
"&  c #282C13",
"*  c #3A2713",
"=  c #263A15",
"-  c #363718",
";  c #2A2622",
":  c #372826",
">  c #383827",
",  c #38382E",
"<  c #4F1E13",
"1  c #5A1D12",
"2  c #6E020D",
"3  c #6A080E",
"4  c #73020D",
"5  c #7C020E",
"6  c #70090F",
"7  c #7F0A11",
"8  c #691A15",
"9  c #781816",
"0  c #442A16",
"q  c #592716",
"w  c #483719",
"e  c #57351A",
"r  c #67271A",
"t  c #76241A",
"y  c #6D331C",
"u  c #761D23",
"i  c #442727",
"p  c #523227",
"a  c #583828",
"s  c #483933",
"d  c #573A37",
"f  c #682C26",
"g  c #782A25",
"h  c #683827",
"j  c #77372B",
"k  c #673A37",
"l  c #783A38",
"z  c #0C4414",
"x  c #0C4A16",
"c  c #0B4F18",
"v  c #144415",
"b  c #1C4316",
"n  c #124916",
"m  c #1E4718",
"M  c #144E18",
"N  c #1B4B19",
"B  c #075318",
"V  c #0D5419",
"C  c #0C5B1C",
"Z  c #13541A",
"A  c #1B521B",
"S  c #14591D",
"D  c #214317",
"F  c #2A4017",
"G  c #234518",
"H  c #2B441B",
"J  c #224C1A",
"K  c #2B491C",
"L  c #36451A",
"P  c #24541E",
"I  c #1B5D22",
"U  c #2E4820",
"Y  c #384826",
"T  c #295A25",
"R  c #365627",
"E  c #3F5F31",
"W  c #17672A",
"Q  c #1A6328",
"!  c #23632A",
"~  c #2C632E",
"^  c #32612E",
"/  c #296B33",
"(  c #376936",
")  c #2B723A",
"_  c #35713D",
"`  c #4A431D",
"'  c #484826",
"]  c #594527",
"[  c #4A542B",
"{  c #474738",
"}  c #57483A",
"|  c #485A34",
" . c #5B5636",
".. c #67442B",
"X. c #664737",
"o. c #764935",
"O. c #774D36",
"+. c #67563B",
"@. c #466639",
"#. c #57633E",
"$. c #2F7841",
"%. c #377743",
"&. c #3B7E4A",
"*. c #494949",
"=. c #584A43",
"-. c #5A5445",
";. c #565654",
":. c #684945",
">. c #774645",
",. c #665647",
"<. c #78584A",
"1. c #6A5852",
"2. c #765A54",
"3. c #5A6748",
"4. c #4F7349",
"5. c #467849",
"6. c #58734B",
"7. c #666A4B",
"8. c #76664C",
"9. c #63734E",
"0. c #6A6857",
"q. c #776856",
"w. c #687855",
"e. c #747A5C",
"r. c #696969",
"t. c #7A6F63",
"y. c #7A7664",
"u. c #747474",
"i. c #7C7C7C",
"p. c #83020F",
"a. c #8C0411",
"s. c #880812",
"d. c #930512",
"f. c #9C0512",
"g. c #940913",
"h. c #9A0B15",
"j. c #871618",
"k. c #98161B",
"l. c #A40514",
"z. c #AC0414",
"x. c #A80B16",
"c. c #BC0516",
"v. c #B60917",
"b. c #A8131B",
"n. c #B6121D",
"m. c #87261C",
"M. c #871D22",
"N. c #9A1C24",
"B. c #A71A23",
"V. c #B71B24",
"C. c #882927",
"Z. c #972625",
"A. c #873529",
"S. c #96322B",
"D. c #912C31",
"F. c #883837",
"G. c #983937",
"H. c #A82729",
"J. c #BA252B",
"K. c #AD2C31",
"L. c #A93837",
"P. c #BA3439",
"I. c #C90718",
"U. c #C40B19",
"Y. c #D4091C",
"T. c #C6121E",
"R. c #C91A27",
"E. c #D41425",
"W. c #D71A2B",
"Q. c #D51B2C",
"!. c #C7232D",
"~. c #CB2A35",
"^. c #D52938",
"/. c #C8353D",
"(. c #D2313E",
"). c #89483A",
"_. c #99443A",
"`. c #81523D",
"'. c #A5423E",
"]. c #8A3E41",
"[. c #AF3D42",
"{. c #C93D45",
"}. c #D73946",
"|. c #894847",
" X c #974747",
".X c #855948",
"XX c #995449",
"oX c #855652",
"OX c #9A5854",
"+X c #A74746",
"@X c #B54849",
"#X c #A7544D",
"$X c #A95954",
"%X c #B65958",
"&X c #86624C",
"*X c #896856",
"=X c #966759",
"-X c #89725D",
";X c #90705C",
":X c #A7635C",
">X c #B3625E",
",X c #AF5E62",
"<X c #936F6C",
"1X c #877866",
"2X c #977767",
"3X c #A76965",
"4X c #BA6667",
"5X c #A8766C",
"6X c #BA726E",
"7X c #AC7778",
"8X c #C8454C",
"9X c #D6424E",
"0X c #C94B52",
"qX c #D84854",
"wX c #CA545A",
"eX c #D8535D",
"rX c #D25D64",
"tX c #CD6A6E",
"yX c #C37876",
"uX c #3D814E",
"iX c #3F8451",
"pX c #41814F",
"aX c #458553",
"sX c #4A8656",
"dX c #4C8B5B",
"fX c #57875C",
"gX c #6E805E",
"hX c #538E61",
"jX c #598E63",
"kX c #549264",
"lX c #5B9469",
"zX c #5C956A",
"xX c #6C8763",
"cX c #738463",
"vX c #7A8769",
"bX c #61976E",
"nX c #7F8F72",
"mX c #649C73",
"MX c #699D76",
"NX c #6D9F78",
"BX c #68A077",
"VX c #6CA17A",
"CX c #71A47E",
"ZX c #8A8970",
"AX c #8A8B75",
"SX c #998776",
"DX c #8B957A",
"FX c #AD8379",
"GX c #C7807F",
"HX c #C87C81",
"JX c #77A984",
"KX c #989D87",
"LX c #AE9189",
"PX c #C98886",
"IX c #C59592",
/* pixels */
";.r.r.u.u.i.i.i.i.i.i.i.i.i.u.u.u.r.r.r.r.u.i.i.i.i.i.i.u.u.u.i.i.i.i.i.i.i.i.i.i.i.u.u.r.r.r.r.u.u.u.u.u.i.u.u.r.r.;.;.;.;.*.*.",
"*.lXmXJXJXJXJXJXJXJXJXJXVXBXmXzXlXlXzXBXJXJXJXJXJXJXJXVXmXJXJXJXJXJXJXJXJXBXBXBXmXmXmXmXmXBXBXJXJXJXJXJXJXBXbXkXkXdXkXbXmXmXzX;.",
"; $.iXdXlXbXBXBXJXmXzXkXdXiXiXdXhXzXmXJXJXJXJXVXbXhXhXkXmXBXBXBXBXbXzXkXdXdXiXaXdXhXlXzXmXBXVXVXVXBXmXlXdXiXuXuXdXzXBXBXBXmXzX*.",
"  W ) uXdXhXhXdXiX&.$.$.$.uXiXkXbXNXVXVXBXmXhX&.) $.uXdXjXkXjXhXdXuX&.&.uXaXdXkXbXmXBXVXCXBXBXzXlXdXuX) W ) &.dXzXBXBXBXzXdX$.. ",
". ) $.uX&.%./ W C W Q ) uXdXlXbXmXMXbXlXpX) C C W &.dXhXhXsX&.&.%.%.&.&.aXhXzXBXNXNXNXBXMXbXkXsXuX) W W ) pXhXjXhXsXaX&.) C B   ",
"  C C C V B c B C ! $.aXdXkXlXlXhXsX_ I C B C _ hXzXzXhX5.%.) / ) ) %.5.dXhXjXjXhXsX5._ ) ) ) / W W / &.fXlXlXsX$./ C V B x z   ",
"  x z z z c V Q ) &.sXfXsXaX%./ V B x c B Q aXjXjXdX%.Q C V C C S / ) %.&.&.%./ V c x z x x c V I ) 5.dXdXaX%./ Q V c x z x c   ",
"  z z c C ! _ &.5.5.%./ I Z x z z z x V / 5.5.&.Q V n z M V V S Q / _ %.%.! V x z z z z z z n c S / $.%./ ! S Z S C C C S Q Q . ",
"  M Z I / ( / ! I C n n $ $ $ n x Z ! &.5.5.! Z n z N n S S ! ( _ %._ ! Z x z v n c Z I I ! I I S S Z Z Z c c S S ! / _ _ ) !   ",
"  Z Z Z Z n v $ $ $ $ @ $ x M I _ 5.5.5./ Z n z v M Z I I ! ( _ _ ~ Z n v v v Z ! ( %.5.%.5._ ( I c n v v M Z A ! ( _ ( ~ I Z   ",
"  v $ @ @ @ $ $ $ v N A ~ %.5.4.4.5.~ Z b v v N A ! I I ~ _ _ ~ M N % n N A / @.5.5._ ( ~ ! A Z A N A M A P ! ~ ~ ( ( ~ A M v   ",
"  v v N A T ( 5.4.fXfXfXfX6.5._ I N b % v b A ~ ~ P P ^ ( ( A N v v m I _ 5.4.5.( T P A N A A b v N A ~ ~ ( ( ~ ~ ~ I m M N m   ",
"  P @.fXxXbXvXxXfXfX4.5.@.~ A b % % % b A ^ _ ^ A A T @.^ A b b N P ( 4.4._ ~ P m m b b b v m A T P A A P T T T P P A J N N N   ",
". ^ ( @.( E ( ^ R R T J m % % @ % % A ^ @.@.E J J T @.^ J b b J ( 4.4.( J G % b % b b b m m D D J P R J J J J J J m m m G b b   ",
"  J J J K D G J G J D % @ @ % D P @.4.4.4.P m J T @.E J b J R @.4.E P = = = % % D % G b G J P P D % b G m G D m m D G m D m D   ",
"  D D = D D K J G = # @ % D | 6.fXw.6.| K G U R @.@.U U U | 4.4.U K H H U P R E @.@.@.| R R U K K = = % % F D = = % # % % F G   ",
"  = F F K K K F # # # F @.gXgXw.4.@.Y K H U E 4.#.R U R @.6.6.R R U R @.6.w.xXxXvXxXcXxXgX6.@.E R R H = # # # # @ # % K R R R . ",
"  F F H K K F # @ = | gXcXgX3.| R Y = Y Y #.9.6.E { | 3.w.3.| | | 3.e.vXvXvXgXe.w.w.e.e.xXvXAXnXvXvXgXw.| K H H R 9.e.gX9.@.R   ",
"  F L L L = & & L e.vXgX6.E Y L - Y Y | w.e.9.#.| 3.9.cXw.3.3.3.cXnXnXcXw.3.3.3.3.4.3.3.9.w.cXvXAXDXKXKXKXKXDXDXDXAXcX9.| L -   ",
"  L L L & & F 6.ZXcX9.| ` L > Y { | w.vXvXe.3.3.7.w.vXgX9.9.e.vXAXy.0.9.9.3.3.3.3.;.3.3.3.3.9.w.gXcXnXAXDXDXDXZXe.9.#.[ L - =   ",
". L - & & ` gXgXw. .' ' > , [ 7.ZXDXDXAXe.w.3.;.-.;.{ > ; # O o .           . . o O O ; > , , { -.3.7.e.e.e.w.0.#.[ L - = & &   ",
"  & & L  .9.w.+.' ' Y , { 7.AXKXKXAX0.{ ; .                                                           o ; - ' ' ` w - & & & -   ",
"  - `  .+.#. .] ' > ' ,.SXKXAX;.;                                                                           - ' - - & - - [  .; ",
"  w [ ]  . .` ` Y } y.KXZX,                                                                               ; , > - w ` 7.8.8.+.. ",
"  ` ]  .] ' > > +.ZXSX,                             O , { =.1.e.y.y.0.1.1.-.-.-.=.*.{ { s , ; O         { +. .+.8.e.1XvX&X+.` . ",
"  ] ] e - * w +.SXt.o                         O { 0.r.q.t.1Xy.y.0.,.+.-. .-.-.-.+.,.-.-.-.-.,.1.8.;.=.-.1XAXSXSXSX1X*X+.] ` w   ",
"  e w * * w +.8.,.o                         : 0.t.1X1X2XZX1Xq.,.+.X.}  .+.+.<.8.8.8.8.+.+.} } } -.+.,.1.q.e.-X8.8.O.e ` w 0 0   ",
"  0 * * 0 ] ..] s                           r.t.2XSXKXSX-X<.O.+.X. .+.<.*X1X2X2XZX2X-X-Xq.<.X.] ] s ] a ] ....e e w 0 * * * 0   ",
"  * * 0 e ..8.-X-.                          0.LXLXLX2X*X8.,.+.X.O..X-X2X-X-X&X8.<.&X*X-X2X2X;X8...a p : w 0 0 * 0 0 w e e e e   ",
"  0 e .X=XSXLXFX1X                            ,.SXZX-Xq.2.<.&X*X2XSX2X=X&XO.X...X.......<.*X;X5X2X*XO...y e e e e y o.O.O...y . ",
"  o.=X;X2X2X;X*X2.}                               : =.2.;X2XSXSXSX;X&X<.<.:.+.X.X.k } X...o.O.&X=X2X2X5X2X=X&X&X=X*X&X`...y e   ",
"O O.`.).`.j j ..o.:.{ O                                   : } :.<.<.oXq.<.<.2..X<.<.o.X.X.....o.`.`.&X;X=X2X=X=X`.`.y y q q q   ",
"  y y y r e e h p s } ,.=.:                                           X : s ,.*X<X7X2X=XoX<.:.:.X.:.o.o.o.j j y y q q q q y r   ",
"  r r q q q < 0 a l O.*X<XSX1X:.: .                                                 ; *.1.*X=X*X<.>.:.X.X.k a h e h y y A.y y   ",
"  r 1 1 < < e A.OX=X=X3X7X<X*X<.1.1.=.d : O                                                   ; =.2.=XOXoX|.).).).XXXXXXA.t r   ",
"  1 1 1 t ).:X:X).m.XX3X3X|.l X.X.>..X<X<X<X1X2.=.s : O                                             . s ;XLXFXFX7X3XXXA.y r r   ",
"  r t ).:X:XXXt t ).:X#XA.f f h F.3X5X5X2X=XOX.X>.1.>.1.2.oX2.:.=.: O                                     X ,.3XOX).j f r t t   ",
"  S._.#X_.m.1 r _.$XOXm.r q g XX5X6X:XOX X).l l o.l >.|.=X2X=X<X*XoXoX2.:.d , .                               + >.o.).A.S.A.A.  ",
"O S.S.m.9 1 t _.:X#Xm.r 1 m.$X>X:X_.S.A.g g f f j G.$X:X3X:XOX X|.F.>.>.:.:.1.2.1.,                             X  X#X#X#X_.m.  ",
"  t 9 8 8 t _.>X#XZ.r r C.$X>X#XS.m.t r r r t A.#X:X>X>X#X_.G.F.l k k k :.>.:XFXLXLX<X;                           :.5X>X_.m.m.  ",
"  8 8 9 m.'.%X$XS.u f S.>X>X#XS.g f r f g S.#X>X>X%X#X'.S.D.g f f f k G.6XPXIXIXIXLXLXSX                          : +XG.g t 8   ",
"  9 j.m.'.#X@XS.C.j L.4X6X#XG.A.j A.S.'.%X4X4X>X%X+XS.D.A.g f f f G.6XPXPXPXyXGXGXGXPX<X                          i l j g u M.  ",
"  9 Z.L.@X+XL.A.l L.4X6X%X+X|. X+X4XyXyXyX4X4X@XL.G.F.F.k f k G.yXPXPXyXtX4X4XyX6XyX3Xi                           k ].S.S.L.L.O ",
"  B.L.L.L.Z.C.A.L.>.d l |. X#X4XyXHXyXyX4X4X@X+X X].].l l +XtXPXPXyX6X4X4X>X%X,X:X:.X                           k XX%X%X%X@XH.  ",
". H.H.B.Z.m.C.L.>.          X : d >.|.|. X XXXOX|.|.oX XyXPXIXHXyXtX4X#X|.l p +                             + oX3X4X>X@XH.k.j.  ",
"  k.k.N.m.Z.L.>.                                . X + : i i + + X                                       + 2.3X3X$X@XH.Z.j.9 8   ",
"  j.j.j.N.K.].                                                                                    : =.oXOX X+XG.D.M.M.9 9 9 j.  ",
"  j.g.k.P.@X'.l f i + .                                                                 + s k >.|.oX X].F.F.D.C.M.M.j.k.b.b.b.  ",
"  k.n.P.P.@XL.L.+XG.].].>.>.d d i i i i : + O O X X X . . . . X X O O + i d =.1.2.t.<X7X7X7X7X,X,X+X[.[.P.K.H.V.V.V.J.P./.P.J.o ",
"  V.!.J.J.J.J.K.D.F.l l l ].].+XOX,X7X4X3X3X<X,XOX X|.|.].>.:.:.:.].,X7X7X7X7X,X,X,X,X4X4X4X4X4XtXtXrXwXwX0X0X0X8X0X8X8X/.P.V.. ",
"  b.b.b.n.n.N.m.u u D.K.K.0XrXtX4XtX4X4X,X%X[.[.[.].].].l k ].[.4XHXHXHXyX,X,XwX0X[.P.P.{.P.{.{.8X8X0X0X0X0X0X0X8X{./.V.v.k.g.  ",
"  g.x.b.h.s.j.k.B.!.9XrXtXtXtXwXeXwX8X8X/.K.K.K.D.D.u D.K.{.tXHXHXHXtXwX0X{.~.J.K.K.H.N.N.N.N.B.B.B.V.T.V.!.!.!.V.n.x.g.s.6 3   ",
"  x.x.x.x.n.T./.eXrXrXeXeXqX{./.~.R.V.B.N.N.N.N.M.N.J.9XtXtXHXeXeXqX{.~.R.B.N.N.N.M.M.h.k.b.b.b.n.v.n.U.n.n.v.x.h.g.s.s.s.s.h.  ",
"  U.U.R.~.9XeXqX0X}.(.!.T.U.n.b.b.k.k.h.k.k.k.b.R.}.eXtXeXeXqX9X^.T.n.B.k.k.s.M.s.x.c.T.R.!.~.~.}.~.!.T.U.z.l.g.g.g.g.x.v.T.R.o ",
"  I.Q.~.!.Q.R.U.c.v.x.h.g.d.d.d.d.g.g.f.x.U.!.}.eXeXeXqX9X(.Q.T.v.b.h.s.s.d.l.I.!.}.qX9X9X9X}.(.R.U.v.l.f.g.d.g.l.v.T.~.(.(.!.. ",
"  x.x.v.z.z.x.f.s.p.p.s.s.d.h.f.x.c.I.R.^.9XqXqX9X}.(.Q.Y.c.l.f.d.s.d.x.c.^.9XeXeXeX9X}.(.R.I.v.l.f.d.d.d.g.z.U.!.(.}.}.^.R.U.  ",
"  d.a.a.h.f.z.c.c.U.I.Y.Y.E.W.Q.^.}.}.qX9XqX9X}.^.Q.I.z.l.f.d.d.f.v.E.(.qXeXqXqX}.(.Q.I.U.z.l.f.d.d.d.l.U.E.^.}.}.9X(.Q.I.v.l.  ",
"  2 p.l.Y.E.Q.^.}.9XqX9X9X9X9X9X}.}.}.^.^.W.Y.c.z.f.d.a.a.d.l.I.Q.}.qXqX}.^.W.W.I.v.z.f.d.d.g.p.a.l.U.E.^.}.(.^.^.Y.c.l.h.a.p.  ",
"  z.U.Y.Q.^.^.^.W.W.W.E.E.E.E.Y.Y.Y.I.U.v.f.a.5 5 4 4 a.f.c.Y.W.^.Q.W.Y.I.v.z.f.p.7 5 5 5 4 p.d.v.I.Y.E.Y.Y.Y.c.l.a.5 4 3 3 4   ",
"  W.Y.I.c.l.f.d.d.d.a.a.d.f.l.z.f.a.p.4 2 2 2 2 2 5 d.z.I.I.Y.I.I.v.f.a.5 2 2 2 2 2 2 2 4 p.l.c.I.I.I.U.z.f.p.2 2 2 2 2 5 d.z.  ",
"  c.d.4 2 2 2 2 2 2 2 4 5 5 2 2 2 2 2 2 2 2 2 2 s.f.z.c.v.z.f.a.5 2 2 2 2 2 2 2 2 2 2 5 d.z.z.z.z.l.f.p.2 2 2 2 2 2 2 a.z.I.Y.  ",
"  4 2 2 2 2 2 2 2 4 5 4 2 2 2 2 2 2 2 2 2 2 5 a.d.f.d.p.5 2 2 2 2 2 2 2 2 2 2 2 2 2 p.d.a.a.a.a.5 2 2 2 2 2 2 2 2 p.f.z.z.z.z.  ",
"  2 2 2 2 2 4 4 2 2 2 2 2 2 2 2 2 2 2 2 4 5 5 p.5 2 2 2 2 4 2 4 2 2 2 2 2 2 2 2 4 4 2 2 2 2 2 2 4 2 2 2 2 2 2 2 5 a.p.p.p.5 p.  ",
"                                                                                                                                "
};
