/* XPM */
static char *_333e45f33524216b68aab5a8bd518e4[] = {
/* columns rows colors chars-per-pixel */
"64 64 255 2 ",
"   c #020202",
".  c #0A0A08",
"X  c #0C0B0C",
"o  c #140E07",
"O  c #1A130D",
"+  c #120D12",
"@  c #131313",
"#  c #171717",
"$  c #281A0D",
"%  c #251B10",
"&  c #1A251C",
"*  c #013916",
"=  c #362512",
"-  c #231B23",
";  c #380B36",
":  c #3A0E38",
">  c #281C34",
",  c #3D123C",
"<  c #37193A",
"1  c #17272A",
"2  c #093A26",
"3  c #12332B",
"4  c #282429",
"5  c #2F382F",
"6  c #262638",
"7  c #352B37",
"8  c #283937",
"9  c #462E16",
"0  c #7F3E00",
"q  c #400C3E",
"w  c #40153E",
"e  c #4A382A",
"r  c #05491B",
"t  c #184D11",
"y  c #2D4C0F",
"u  c #094325",
"i  c #165230",
"p  c #2A5924",
"a  c #29453A",
"s  c #344738",
"d  c #265938",
"f  c #345935",
"g  c #1D6533",
"h  c #27673C",
"j  c #366C30",
"k  c #51500A",
"l  c #455A1A",
"z  c #724C16",
"x  c #6A5B17",
"c  c #516C1B",
"v  c #766618",
"b  c #58442D",
"n  c #545335",
"m  c #67492C",
"M  c #694E33",
"N  c #67533A",
"B  c #755536",
"V  c #566C31",
"C  c #736C29",
"Z  c #3B1C42",
"A  c #392A45",
"S  c #333546",
"D  c #460D44",
"F  c #490E47",
"G  c #4D0F4B",
"H  c #500F4E",
"J  c #431643",
"K  c #451A43",
"L  c #4D134B",
"P  c #481D48",
"I  c #51134F",
"U  c #551153",
"Y  c #561954",
"T  c #5D125A",
"R  c #5C1C5A",
"E  c #61135E",
"W  c #492549",
"Q  c #4C244A",
"!  c #512C4F",
"~  c #463746",
"^  c #4A2653",
"/  c #592858",
"(  c #4C3653",
")  c #573857",
"_  c #61295F",
"`  c #621460",
"'  c #671D64",
"]  c #731B70",
"[  c #652A63",
"{  c #70236E",
"}  c #663865",
"|  c #752B72",
" . c #793777",
".. c #314B47",
"X. c #3A4A47",
"o. c #375747",
"O. c #3D5D52",
"+. c #386749",
"@. c #326D4D",
"#. c #3B774D",
"$. c #3B6854",
"%. c #48474B",
"&. c #58475A",
"*. c #4A5958",
"=. c #515550",
"-. c #66524E",
";. c #486746",
":. c #476757",
">. c #4F7450",
",. c #656C49",
"<. c #6D734E",
"1. c #7D7344",
"2. c #5D4762",
"3. c #595963",
"4. c #674867",
"5. c #69556B",
"6. c #794A77",
"7. c #775978",
"8. c #4C6962",
"9. c #5A6569",
"0. c #556F69",
"q. c #66656C",
"w. c #686572",
"e. c #78677C",
"r. c #7C7C7C",
"t. c #803F01",
"y. c #814103",
"u. c #844509",
"i. c #86480D",
"p. c #935208",
"a. c #884C12",
"s. c #8B5B12",
"d. c #8C521B",
"f. c #A14F00",
"g. c #A45204",
"h. c #AA5503",
"j. c #A7570A",
"k. c #AD5B0C",
"l. c #B45903",
"z. c #B15A07",
"x. c #BB5C01",
"c. c #A95D15",
"v. c #B05F10",
"b. c #8A6A11",
"n. c #976418",
"m. c #B9640E",
"M. c #A9611B",
"N. c #B16114",
"B. c #B2651B",
"V. c #B96718",
"C. c #B27214",
"Z. c #8A5A2D",
"A. c #925C28",
"S. c #90722F",
"D. c #976638",
"F. c #A76525",
"G. c #B56C24",
"H. c #B86D26",
"J. c #A37125",
"K. c #B9712B",
"L. c #AC7639",
"P. c #B47335",
"I. c #B77637",
"U. c #C05F02",
"Y. c #C26104",
"T. c #C3660B",
"R. c #C86609",
"E. c #D46A02",
"W. c #DD6D02",
"Q. c #DA710A",
"!. c #C46B14",
"~. c #C76D17",
"^. c #C7711C",
"/. c #DD7816",
"(. c #E16F00",
"). c #E3750B",
"_. c #F77B03",
"`. c #E37C19",
"'. c #F27F10",
"]. c #C57426",
"[. c #D97E25",
"{. c #C37B36",
"}. c #E07F22",
"|. c #966C44",
" X c #8B724A",
".X c #96785A",
"XX c #A77647",
"oX c #B57C45",
"OX c #81457F",
"+X c #80677F",
"@X c #6B823B",
"#X c #4D8255",
"$X c #568B70",
"%X c #69977A",
"&X c #6CA37B",
"*X c #928235",
"=X c #B1833E",
"-X c #F58213",
";X c #FD891A",
":X c #CC8331",
">X c #D88637",
",X c #E38428",
"<X c #FD932D",
"1X c #E38830",
"2X c #FD9939",
"3X c #8C8359",
"4X c #BA874B",
"5X c #9B846B",
"6X c #AD9379",
"7X c #C68546",
"8X c #D58B44",
"9X c #FE9F44",
"0X c #FEA24A",
"qX c #FEAA58",
"wX c #FEAE62",
"eX c #FEB46C",
"rX c #FEB670",
"tX c #FEB977",
"yX c #FEBC7D",
"uX c #7B7D82",
"iX c #883D85",
"pX c #8B4D89",
"aX c #985796",
"sX c #876588",
"dX c #90688E",
"fX c #956994",
"gX c #957B94",
"hX c #A771A5",
"jX c #B17FAF",
"kX c #7DA691",
"lX c #8E8C99",
"zX c #91959C",
"xX c #9EA19B",
"cX c #A685A5",
"vX c #AA88A9",
"bX c #B181AF",
"nX c #B08CAF",
"mX c #A79AAC",
"MX c #B486B3",
"NX c #B68AB5",
"BX c #B88DB6",
"VX c #BA8FB8",
"CX c #AD99B2",
"ZX c #B593B3",
"AX c #B598B6",
"SX c #BC94BA",
"DX c #A7A0AF",
"FX c #D8B793",
"GX c #E8B88A",
"HX c #FEBE82",
"JX c #FEC085",
"KX c #FDC38B",
"LX c #E9C29C",
"PX c #F4C393",
"IX c #DBC4A2",
/* pixels */
"%.9.r.r.r.r.r.r.r.r.r.r.r.r.r.r.r.r.r.r.r.r.r.r.r.r.r.r.r.r.r.r.r.r.r.r.r.r.r.r.r.r.r.r.r.r.r.r.r.r.r.r.r.r.r.r.r.r.r.r.r.r.3.%.",
"4 2XeXrXtXtXtXtXtXtXtXtXtXtXtXtXtXtXtXtXtXtXtXtXtXtXtXtXtXtXtXtXtXtXtXtXtXtXtXtXtXtXtXtXtXtXtXtXtXtXtXtXtXtXtXtXtXtXtXtXtXeX2X4 ",
"  (.9XyXyXyXyXyXHXyXHXyXHXyXHXHXHXyXyXHXHXyXHXyXyXHXHXyXyXHXHXHXyXHXyXyXHXyXHXHXHXyXyXHXHXyXHXyXyXHXHXyXyXHXHXHXHXyXyXyXyX9X(.  ",
"  h.W.t.0 0 0 0 t.0 0 0 0 0 0 t.0 0 0 0 0 0 0 0 0 0 0 0 0 0 0 0 t.0 0 0 0 0 0 t.0 0 0 0 0 0 0 0 0 0 0 t.0 0 0 0 t.0 0 0 0 W.l.  ",
"  l.(.t.t.t.t.t.0 0 0 t.0 0 0 0 0 0 0 0 0 0 0 0 0 0 t.0 0 0 0 0 0 0 0 0 0 0 0 0 0 0 0 0 0 0 0 0 0 0 0 0 0 0 0 0 t.t.t.t.y.W.l.  ",
"  h.E.U.x.;X9XwXrXrXrXrXrXrXrXrXrXrXrXrXrXrXrXrXrXrXrXrXrXrXrXrXrXrXrXrXrXrXrXrXrXrXrXrXrXrXrXrXrXrXrXrXrXrXrXrXwX2X;Xx.x.W.h.  ",
"  f.Y.x.x.2X0XrXtXyXtXyXtXyXtXyXtXyXyXtXtXyXtXyXyXyXtXyXtXtXyXtXyXtXtXyXtXyXtXyXtXyXyXtXtXyXtXyXtXtXyXtXyXtXyXtXeX0X<XU.l.R.f.  ",
"  f.Y.l.l._._.qXyXHXyXHXHXyXyXHXyXHXyXHXyXHXHXyXyXyXHXyXHXHXyXHXyXHXyXHXHXyXyXHXyXHXyXHXyXHXHXyXHXHXyXHXHXyXHXyX9X_.-Xl.l.U.f.  ",
"  f.Y.l.l.E.f.U.f.0 t.t.t.t.t.0 0 0 0 0 0 0 0 0 0 0 t.t.0 0 0 t.0 t.t.0 0 0 0 0 0 0 0 0 0 0 0 0 0 0 0 0 0 0 t.l.x.f.(.l.l.U.f.  ",
"  f.Y.l.l.E.h.U.0 0 t.t.t.t.0 0 0 0 0 0 0 0 0 0 0 0 t.t.t.t.t.t.t.t.t.t.0 y.y.0 0 0 0 0 0 0 0 0 0 0 0 t.t.t.t.t.x.h.(.l.l.U.g.  ",
"  g.Y.z.l.E.j.T.g.u.t.t.t.t.t.0 0 0 0 0 0 0 0 0 t.t.t.t.y.y.u.u.u.i.y.u.y.y.0 0 0 0 0 0 0 0 0 0 0 0 t.t.t.t.t.z.x.j.).l.l.T.g.  ",
". g.R.z.N.Q.v.T.m.v.'.0XeXyXyXyXyXyXyXyXyXyXyXyXyXyXHXHXHXJXJXJXHXHXHXHXHXHXHXHXyXyXyXyXyXyXyXyXyXyXHXeX0X).k.T.m.v.).m.m.T.g.. ",
". g.!.N.V./.B.^.V.N.'.;X0XyXyXyXyXyXtXyXtXyXyXyXyXHXHXHXHXKXKXKXKXKXKXJXJXJXHXyXyXyXyXyXtXyXyXyXyXyXtX9X;X).v.!.!.N.`.V.V.~.j.X ",
". g.~.V.H.[.G.].].G.'.m.m.'.l.t.0 0 0 0 0 0 0 0 y.y.u.a.d.d.A.A.D.A.A.d.d.a.a.u.y.y.0 0 0 0 0 0 0 l.-Xl.z./.N.^.].H.,XH.V.^.c.X ",
"X c.~.G.K.:XP.{.I.H.,XV.N.k.u.t.0 0 0 0 0 0 y.y.y.u.a.d.A.A.D.D.D.|.D.D.A.d.a.a.u.y.y.0 0 0 0 0 t.t.h.z.N./.G.{.K.P.1XI.K.^.c.+ ",
"X c.^.=           9 1XG.B.R.u.y.y.0 0 0 0 0 y.y.u.i.d.A.D.9             Z.A.d.a.u.y.y.0 0 0 0 0 t.t.R.N.N.}.H.z           = F.# ",
"+ c.].m             >XK.B./.k.Y.2XwXyXHXyXyXHXHXHXKXKXPXFX              .XPXKXKXJXHXHXHXyXtXwX2XU.h.).N.G.,XL.$           z F.# ",
"+ M.K.Z.            D.P.H.`.v.Y.<X9XtXtXyXyXyXyXHXKXKXPX5X              -.LXKXKXJXHXyXtXyXtX9X<XU.j.).B.H.>XD.            D.F.- ",
"+ M.K.L.%           m oXK.}.c.T.W.E.0XtXtXtXtXtXyXHXKXGXN                 FXPXHXHXtXrXtXtX0XE.(.U.j.).B.K.>Xm           e L.F.# ",
"X M.{.L.m           O oXP.}.N.T.x.g.U.t.t.t.y.u.d.A.D.|.                  B D.A.d.a.u.y.t.l.f.x.Y.v./.G.I.8X%           B oXF.# ",
"+ M.].I.|.            |.I.,XB.!.Y.h.E.t.t.0 y.a.d.A.|.M         .         b |.Z.d.a.u.y.0 E.g.U.Y.c.`.H.I.oX          + XXI.F.# ",
"X M.].I.XX%           M oX1XB.m.T.f.W.g.g._.<XwXtXHXGXN         -..       O GXyXwX2X).h.h.W.g.Y.T.v.}.K.oXB           b XX].B.# ",
". c.^.K.oXM           = oX>XG.~.T.h.W.h.h.9XqXyXKXPXFX        O 6X          6XPXHXwX9Xz.h.W.h.T.T.M.}.P.oX=           Z.oX].M.+ ",
". j.~.K.L.XX            XX>XG.~.T.h.W.h.l.;X;XwXPXPX5X        %.6XO         .XLXwX;X<Xz.h.W.h.x.T.B.,XoX|.          O XXP.].M.X ",
"  j.^.G.P.7Xo           B >XP.^.!.j.(.h.h.Q.N.^.P.|.e         N .Xe         % oX{.G.-Xz.h.W.h.T.!.G.1XoXM           M oXP.^.c.. ",
"  j.!.G.K.7Xb           b 8XP.].!.k.W.h.z.Q.B.].D.|.           X.XN            XI.G.,Xv.h.(.j.T.!.G.>XoX$           XXI.H.^.j.. ",
"  g.R.V.K.7XB             8XI.].~.j.W.j.k./.B.].I.M         # .X.X X          B 7XH.,XN.k.W.j.T.~.H.>X|.          % 7XP.K.~.j.  ",
"  p.!.B.G.7XXXo           |.L.].^.c.Q.j.j./.J.:XoXe       . <.IXIXFX#         = oXK.,Xc.k.Q.j.V.H.P.8XM           M 7XP.B.!.p.. ",
". 0 j.b.n.=XS.b           b 3XL.J.s.C.p.s.C.J.L.XX          5XIXIXFX-.           XXX:Xb.s.C.s.J.J.S.4X%            XL.S.n.n.i.  ",
"  k x x v S.1.,.          % 1.S.C x b.k x S.C  XN         o 3X1.<.3X,.          V S.*Xv x b.x v S.1.1.          4 1.*XC x v k   ",
"  y k l l V V <..           ,.<.V l c l l V V @X5         s ,.,.<.<.<.          5 <.@XV l c l c V ,.n           n ,.@Xc l l y . ",
"  t t t p j #.>.s           f >.;.j j p p j #.#X          ;.;.;.;.:.>.&         o >.#.j p p p j #X>.#           >.+.j p y t t   ",
"  * r r u g d $.o.          & >.@.d g i g h $.f         @ #X#.kX&X#.#Xs           o.#Xh d g i h #.+.          5 ;.h h i r r *   ",
"  * r r u g d @.:.            :.+.d h d d @.:.5         a %X&XkXkX%X%XO.          a #.+.d h d @.:.s           o.+.o.g i u r *   ",
"  * 2 u u i i O.:.5           o.:.+.@.d o.#.:.          O.#.$XkXkX$X#.8.#         # 8.$.+.h o.$.:.#         . 8.+.d i u 2 2 *   ",
"  2 2 2 3 d a O.O.X.          5 8.O.$.o.O.8.X.        @ *.X.a 8 a a X.*.s           :.:.O.$.O.8.:.          8 :.O.a d 3 2 2 2   ",
"  1 3 1 3 a S ..*.*.          . 0.*.8.*.8.0.6         5 *.X.8 8 8 8 s *.X.          %.9.*.8.:.9.X.          *.*.....a 3 3 3 1   ",
"  1 6 6 6 S S X.=.3.7           *.9.w.3.9.w.          uXzXzXzXlXlXlXzXzXzXX         1 q.9.q.q.w.-         # 3.*.X.S S 6 6 6 1   ",
"  > 6 6 6 A S ( &.3.%.          X.w.e.w.w.&.        7 xXDXDXmXmXmXmXDXDXmX%.          w.w.e.w.w.          ~ 3.&.( S A A > A >   ",
"  Z Z Z Z ^ A ^ &.2.7.          - e.sX7.e.7         q.DXCXCXCXCXmXmXAXDXmXe.          3.e.dXe.(           5.2.2.( ^ ^ Z Z Z <   ",
"  Z L J J Y P / } 2.7.4 .         7.sX+X7.          &.&.) K < < < < W ( &.2.          ~ e.dX+X7         - 7.} } ^ L R Z Z L q   ",
"  D U F L T L _ [ } OX~           &.dXsX2.        - 4.&.! P w : : Z K ! &.4.4         # +XaX+X          ~ 6.} [ / I ` I H U F   ",
"  D U H I E L R _ ) OX4.          ~ dXsX~         ~ 4.) ! K , , : , K ^ ) 4.~           7.dX4.          5.6.} _ R I ` G H U F   ",
"  D U H G E L R _ _ OX6.-         X sXaX+       . gXZXSXSXBXBXNXNXBXVXSXAXZXcX          4.sX~         7 6. ._ _ Y I ` G G U F   ",
"  F U G G T L Y R _ OX6.(           7.dX        %.nXZXSXVXBXBXMXNXNXVXVXSXAXnX5         &.dX#         ( 4. ._ ' Y G ` H G U F   ",
"  F U G G T L T Y _  .4.5.          ~ ~         ~ 4.) Q w w ; ; : : , K ! ) 4.~         - 4.        X 5.4. ./ R U F E H G U D   ",
"  F U G G T F U Y R  .} 5.-         7 7         4.2.! Q w w : ; ; : , K Q ) 2.2.          %.        ~ 6.}  .Y R I G ` G H U D   ",
"  F U G G T L U Y Y  .} 6.)         . .       7 4.) ! P w : ; ; ; ; : w Q ! ) 4.#         #         ) 4.} | Y R I F ` H H U D   ",
"  D U H G T F U U Y | } 4.6.                  e.CXSXAXSXVXBXMXBXBXBXBXVXSXSXAXZX&.                - pX} } { Q U U G ` G H U F   ",
"  D U H G T F U U I | _ } fX-               @ cXZXSXVXVXBXMXMXMXMXMXMXNXVXSXAXAX+X                &.gX} _ { L U I F ` G G U F   ",
"  D U H H T F U I I { _ } OX&.              &.vXnXBXMXMXjXjXjXjXjXjXjXbXMXBXVXnXvX@               7.OX_ _ ' L U I F ` H G U F   ",
"  D U H H T F H I I ' Q ! ) (               ~ ) ! Q w w : ; ; ; ; ; : : w K Q ! &.4             + &.) Q w ' L U H F ` G G U F   ",
"  D U H H T F U L L ' K W ! ) o           . ) ! Q P w : : ; ; ; ; ; ; ; w w P Q ) 7             7 ) ! W w R G U H F ` H G U F   ",
"  D U G G T F U T ` hXNXMXnXvXgXgXgXgXgXgXgXcXnXMXMXbXbXbXjXjXjXjXjXjXjXbXbXNXMXvXcXgXgXgXgXgXgXcXbXMXMXBXaXE ` H F ` G G U F   ",
"  D U H G T F U iXaXMXNXBXBXNXvXvXcXcXcXcXvXNXBXBXBXMXMXMXMXMXMXMXMXMXMXNXNXBXBXMXnXvXcXcXcXcXvXvXNXBXBXBXMXaXiXH F ` G H U F   ",
"  D U H H T F U pXhXBXBXBXVXVXVXZXNXZXZXBXBXBXBXBXBXBXBXBXBXNXNXNXNXNXBXNXBXBXBXBXZXBXBXZXNXZXNXBXBXBXBXBXNXhXiXH F ` H G U D   ",
"  D U H G G ; ; : : ; : : w w J J K K K J w w , q : : ; ; ; ; ; ; ; ; ; ; : : q w J J K K K K K w J , : ; ; ; ; ; ; U H H U D   ",
"  D U F F D ; ; ; ; ; ; : : : , , w , w , , , : : ; ; ; ; ; ; ; ; ; ; ; ; ; : : : , , , , , , , , : : : ; ; ; ; ; ; H F F U D   ",
"  D F F F ` D ; ; ; ; ; ; ; ; : ; : : ; : : ; ; ; ; ; ; ; ; ; ; ; ; ; ; ; ; ; ; ; ; : ; : : : : ; ; ; ; ; ; ; ; ; F ` F F G D   ",
"  q F ] aXNXNXNXNXNXNXNXNXNXNXNXNXNXNXNXNXNXNXNXNXNXNXNXNXNXNXNXNXNXNXNXNXNXMXBXNXNXNXNXNXNXNXNXNXNXNXNXNXNXNXNXNXNXNXaX] F q   ",
"  : G aXjXNXNXNXNXNXNXNXNXNXNXNXNXNXNXNXNXNXNXNXNXNXNXNXNXNXNXNXNXNXNXNXNXMXBXMXNXNXNXNXNXNXNXNXNXNXNXNXNXNXNXNXNXNXNXjXaXF q   ",
"  ; ; ; ; ; ; ; ; ; ; ; ; ; ; ; ; ; ; ; ; ; ; ; ; ; ; ; ; ; ; ; ; ; ; ; ; ; ; ; ; ; ; ; ; ; ; ; ; ; ; ; ; ; ; ; ; ; ; ; ; ; ;   ",
"  ; ; ; ; ; ; ; ; ; ; ; ; ; ; ; ; ; ; ; ; ; ; ; ; ; ; ; ; ; ; ; ; ; ; ; ; ; ; ; ; ; ; ; ; ; ; ; ; ; ; ; ; ; ; ; ; ; ; ; ; ; ;   ",
"                                                                                                                                "
};
